<svg width="8" height="15" viewBox="0 0 8 15" fill="none" xmlns="http://www.w3.org/2000/svg">
<path d="M5.49451 10.1875C5.49451 9.76042 5.37472 9.42188 5.13513 9.17188C4.90076 8.91667 4.49972 8.68229 3.93201 8.46875C3.3643 8.25521 2.87472 8.04427 2.46326 7.83594C2.0518 7.6224 1.69763 7.38021 1.40076 7.10938C1.10909 6.83333 0.879924 6.51042 0.713257 6.14062C0.551799 5.77083 0.471069 5.33073 0.471069 4.82031C0.471069 3.9401 0.752319 3.21875 1.31482 2.65625C1.87732 2.09375 2.62472 1.76562 3.55701 1.67188V0H4.80701V1.69531C5.72888 1.82552 6.45024 2.21094 6.97107 2.85156C7.4919 3.48698 7.75232 4.3125 7.75232 5.32812H5.49451C5.49451 4.70312 5.3643 4.23698 5.10388 3.92969C4.84867 3.61719 4.50492 3.46094 4.07263 3.46094C3.64555 3.46094 3.31482 3.58333 3.08044 3.82812C2.84607 4.06771 2.72888 4.40104 2.72888 4.82812C2.72888 5.22396 2.84347 5.54167 3.07263 5.78125C3.3018 6.02083 3.72628 6.26562 4.34607 6.51562C4.97107 6.76562 5.48409 7.0026 5.88513 7.22656C6.28617 7.44531 6.62472 7.69531 6.90076 7.97656C7.1768 8.2526 7.38774 8.57031 7.53357 8.92969C7.6794 9.28385 7.75232 9.69792 7.75232 10.1719C7.75232 11.0573 7.47628 11.776 6.92419 12.3281C6.37211 12.8802 5.61169 13.2057 4.64294 13.3047V14.8594H3.40076V13.3125C2.33305 13.1979 1.50492 12.8203 0.916382 12.1797C0.333049 11.5339 0.0413818 10.6771 0.0413818 9.60938H2.29919C2.29919 10.2292 2.44503 10.7057 2.73669 11.0391C3.03357 11.3672 3.45805 11.5312 4.01013 11.5312C4.46847 11.5312 4.83044 11.4115 5.09607 11.1719C5.36169 10.9271 5.49451 10.599 5.49451 10.1875Z" fill="#21CC14"/>
</svg>
